<?xml version="1.0" encoding="utf-8"?>
<!-- Generator: Adobe Illustrator 24.0.3, SVG Export Plug-In . SVG Version: 6.00 Build 0)  -->
<svg version="1.1" id="Layer_1" xmlns="http://www.w3.org/2000/svg" xmlns:xlink="http://www.w3.org/1999/xlink" x="0px" y="0px"
	 viewBox="0 0 391.39 66.63" style="enable-background:new 0 0 391.39 66.63;" xml:space="preserve">
<style type="text/css">
	.st0{fill:#006580;}
	.st1{fill:#FFB71B;}
</style>
<g id="Logo">
	<g>
		<path class="st0" d="M387.87,55.64h0.76v-1.88h0.01l0.69,1.88h0.49l0.69-1.88h0.01v1.88h0.76v-2.88h-1.02l-0.69,1.88l-0.69-1.88
			h-1.02L387.87,55.64L387.87,55.64z M385.67,55.64h0.76v-2.21h0.83v-0.67h-2.42v0.67h0.83L385.67,55.64L385.67,55.64z
			 M377.83,55.63c0.39,0.07,0.8,0.2,1.24,0.41c0.44,0.2,0.82,0.47,1.16,0.78c0.91,0.85,1.37,1.96,1.37,3.31
			c0,1.38-0.45,2.52-1.33,3.42c-0.28,0.28-0.58,0.51-0.92,0.7s-0.75,0.35-1.25,0.47s-1.2,0.19-2.1,0.19h-2.31v-9.37h2.25
			C376.81,55.53,377.44,55.57,377.83,55.63 M375.88,66.51c1.12,0,1.87-0.03,2.27-0.09s0.83-0.19,1.31-0.37
			c0.81-0.31,1.52-0.76,2.14-1.36c0.6-0.58,1.06-1.26,1.39-2.03c0.32-0.77,0.49-1.57,0.49-2.42c0-1.18-0.29-2.27-0.88-3.26
			c-0.59-1-1.38-1.75-2.38-2.27c-1-0.51-2.35-0.77-4.07-0.77h-4.25v12.58h3.98V66.51z M356.54,56.83c0.94,0.91,1.41,2.03,1.41,3.37
			c0,1.37-0.47,2.52-1.41,3.43c-0.94,0.92-2.11,1.38-3.52,1.38c-1.4,0-2.57-0.45-3.5-1.35s-1.4-2.03-1.4-3.39
			c0-1.4,0.46-2.55,1.39-3.45c0.93-0.9,2.11-1.35,3.56-1.35C354.44,55.46,355.6,55.92,356.54,56.83 M348.16,55.6
			c-1.27,1.23-1.91,2.79-1.91,4.67c0,1.83,0.63,3.36,1.9,4.58c1.26,1.22,2.85,1.83,4.75,1.83c1.99,0,3.64-0.61,4.95-1.83
			s1.96-2.75,1.96-4.61s-0.65-3.4-1.94-4.63c-1.3-1.23-2.92-1.85-4.86-1.85C351.05,53.75,349.44,54.36,348.16,55.6 M332.56,56.83
			c0.94,0.91,1.41,2.03,1.41,3.37c0,1.37-0.47,2.52-1.41,3.43c-0.94,0.92-2.11,1.38-3.52,1.38c-1.4,0-2.57-0.45-3.5-1.35
			s-1.4-2.03-1.4-3.39c0-1.4,0.46-2.55,1.39-3.45c0.93-0.9,2.12-1.35,3.56-1.35C330.47,55.46,331.62,55.92,332.56,56.83
			 M324.19,55.6c-1.27,1.23-1.91,2.79-1.91,4.67c0,1.83,0.63,3.36,1.9,4.58c1.26,1.22,2.85,1.83,4.75,1.83
			c1.99,0,3.64-0.61,4.95-1.83s1.96-2.75,1.96-4.61s-0.65-3.4-1.94-4.63c-1.3-1.23-2.92-1.85-4.87-1.85
			C327.08,53.75,325.47,54.36,324.19,55.6 M306.12,61.93h2.43v2.62l-0.17,0.05c-1,0.33-1.87,0.5-2.59,0.5
			c-1.48,0-2.7-0.45-3.64-1.36s-1.42-2.08-1.42-3.51c0-1.36,0.47-2.51,1.42-3.45s2.1-1.41,3.48-1.41c1.48,0,2.97,0.44,4.47,1.31
			v-1.84c-0.97-0.41-1.78-0.69-2.42-0.84s-1.31-0.23-2.02-0.23c-1.95,0-3.57,0.62-4.86,1.87c-1.29,1.25-1.94,2.82-1.94,4.7
			c0,1.79,0.62,3.29,1.87,4.5c1.25,1.22,2.91,1.83,5,1.83c1.53,0,3.07-0.34,4.62-1.01v-5.34h-4.23L306.12,61.93L306.12,61.93z
			 M267.61,55.66c0.38,0.13,0.68,0.36,0.89,0.68c0.21,0.32,0.32,0.68,0.32,1.08s-0.09,0.76-0.28,1.08
			c-0.19,0.32-0.45,0.55-0.79,0.71s-0.97,0.23-1.88,0.23h-0.68v-3.98h0.54C266.59,55.46,267.23,55.53,267.61,55.66 M265.17,66.52
			v-5.48h0.47c0.59,0,1.01,0.07,1.26,0.2c0.25,0.14,0.53,0.36,0.84,0.66c0.31,0.31,0.65,0.72,1.02,1.24l0.6,0.98l0.56,0.92l0.35,0.5
			c0.05,0.07,0.09,0.12,0.11,0.15l0.55,0.83h2.15l-0.67-0.9c-0.27-0.36-0.62-0.9-1.06-1.61c-0.7-1.14-1.24-1.93-1.62-2.39
			s-0.78-0.82-1.18-1.08c0.69-0.26,1.21-0.66,1.58-1.2s0.55-1.17,0.55-1.9c0-1.08-0.37-1.93-1.12-2.56s-1.76-0.95-3.03-0.95h-3.16
			v12.6h1.8L265.17,66.52L265.17,66.52z M247.97,56.83c0.94,0.91,1.41,2.03,1.41,3.37c0,1.37-0.47,2.52-1.41,3.43
			c-0.94,0.92-2.11,1.38-3.52,1.38c-1.4,0-2.57-0.45-3.5-1.35s-1.4-2.03-1.4-3.39c0-1.4,0.46-2.55,1.39-3.45s2.11-1.35,3.56-1.35
			C245.88,55.46,247.03,55.92,247.97,56.83 M239.6,55.6c-1.27,1.23-1.91,2.79-1.91,4.67c0,1.83,0.63,3.36,1.9,4.58
			c1.26,1.22,2.85,1.83,4.75,1.83c1.99,0,3.64-0.61,4.95-1.83s1.96-2.75,1.96-4.61s-0.65-3.4-1.94-4.63
			c-1.3-1.23-2.92-1.85-4.86-1.85S240.88,54.36,239.6,55.6 M220.83,66.52h1.8v-5.87h4.91v-1.6h-4.91v-3.52h4.91v-1.6h-6.72
			L220.83,66.52L220.83,66.52z M190.47,63.7l-8.49-9.77h-1.46v12.6h1.7v-9.69l8.42,9.69h1.55v-12.6h-1.71L190.47,63.7L190.47,63.7z
			 M166.21,56.83c0.94,0.91,1.41,2.03,1.41,3.37c0,1.37-0.47,2.52-1.41,3.43c-0.94,0.92-2.11,1.38-3.52,1.38
			c-1.4,0-2.57-0.45-3.5-1.35s-1.4-2.03-1.4-3.39c0-1.4,0.46-2.55,1.39-3.45s2.11-1.35,3.56-1.35
			C164.12,55.46,165.27,55.92,166.21,56.83 M157.84,55.6c-1.27,1.23-1.91,2.79-1.91,4.67c0,1.83,0.63,3.36,1.9,4.58
			c1.26,1.22,2.85,1.83,4.75,1.83c1.99,0,3.64-0.61,4.95-1.83s1.96-2.75,1.96-4.61s-0.65-3.4-1.94-4.63
			c-1.3-1.23-2.92-1.85-4.86-1.85S159.12,54.36,157.84,55.6 M142.03,66.52h1.8v-12.6h-1.8V66.52z M119.93,55.51h4.32v11.01h1.81
			V55.51h4.39V53.9h-10.52C119.93,53.9,119.93,55.51,119.93,55.51z M102.34,61.19l1.88-4.56l2.03,4.56H102.34z M98.2,66.52h1.85
			l1.59-3.73H107l1.68,3.73h1.85l-5.64-12.67h-1.27L98.2,66.52z M83.67,65.01c-1.46,0-2.66-0.44-3.6-1.33
			c-0.94-0.89-1.41-2.03-1.41-3.41c0-1.37,0.48-2.51,1.43-3.42c0.95-0.91,2.15-1.37,3.59-1.37c1.41,0,2.85,0.42,4.32,1.26V54.8
			c-1.62-0.69-3.09-1.04-4.41-1.04c-1.92,0-3.53,0.62-4.84,1.87s-1.96,2.79-1.96,4.63c0,1.15,0.29,2.23,0.86,3.22
			s1.35,1.77,2.33,2.34c0.98,0.56,2.17,0.85,3.58,0.85c1.73,0,3.26-0.36,4.58-1.08V63.6C86.68,64.54,85.19,65.01,83.67,65.01
			 M64.2,61.08c0,0.99-0.08,1.69-0.24,2.1c-0.16,0.41-0.41,0.76-0.77,1.06c-0.67,0.56-1.55,0.84-2.62,0.84
			c-0.75,0-1.4-0.14-1.96-0.42c-0.55-0.28-0.96-0.65-1.24-1.11c-0.27-0.46-0.41-1.29-0.41-2.47v-7.15h-1.81v7.13
			c0,1.02,0.07,1.76,0.2,2.24c0.13,0.47,0.31,0.88,0.51,1.2c0.21,0.33,0.46,0.62,0.76,0.89c0.99,0.85,2.31,1.28,3.95,1.28
			c1.61,0,2.91-0.43,3.91-1.29c0.3-0.26,0.56-0.55,0.76-0.88c0.21-0.33,0.38-0.74,0.52-1.23c0.14-0.49,0.21-1.22,0.21-2.19v-7.15
			h-1.81v7.15C64.16,61.08,64.2,61.08,64.2,61.08z M37.69,55.63c0.39,0.07,0.8,0.2,1.24,0.41c0.44,0.2,0.82,0.47,1.16,0.78
			c0.91,0.85,1.37,1.96,1.37,3.31c0,1.38-0.44,2.52-1.33,3.42c-0.28,0.28-0.58,0.51-0.92,0.7c-0.33,0.19-0.75,0.35-1.25,0.47
			s-1.2,0.19-2.1,0.19h-2.31v-9.37h2.25C36.67,55.53,37.3,55.57,37.69,55.63 M35.73,66.51c1.12,0,1.88-0.03,2.27-0.09
			c0.4-0.06,0.83-0.19,1.31-0.37c0.81-0.31,1.52-0.76,2.14-1.36c0.6-0.58,1.06-1.26,1.39-2.03c0.32-0.77,0.49-1.57,0.49-2.42
			c0-1.18-0.3-2.27-0.88-3.26c-0.59-1-1.38-1.75-2.38-2.27c-1-0.51-2.35-0.77-4.07-0.77h-4.25v12.58h3.98V66.51z M13.72,66.51h7.31
			v-1.6h-5.5V61h5.16v-1.61h-5.16v-3.84h5.34v-1.6h-7.14v12.56H13.72z"/>
		<rect x="-0.01" y="41.86" class="st1" width="391.39" height="2.03"/>
		<g>
			<path class="st0" d="M95.66,7.08c-1.34,0-3.14,0-5.05,0.07c-1.48,0.07-4.52,0.21-5.54,0.21v0.95c2.68-0.04,3.36,0.53,3.36,3.11
				v14.09c0,2.36-0.35,2.86-3.36,2.86v0.95h10.98c10.35,0,13.99-6.42,13.99-11.62c0-2.65-0.85-5.33-3.04-7.52
				C104.84,8.03,100.99,7.08,95.66,7.08z M103,25.8c-1.62,1.63-3.81,2.54-8.05,2.54c-2.29,0-2.61-0.32-2.61-2.54V8.14
				c0.88-0.07,1.98-0.07,2.58-0.07c4.13,0,6.36,0.81,8.12,2.58c2.15,2.16,2.72,5.01,2.72,7.56C105.76,20.68,105.16,23.64,103,25.8z"
				/>
			<path class="st0" d="M84.3,24c-2.65,3.6-2.86,3.74-5.86,3.74H74.8c-1.62,0-1.91-0.28-1.91-1.73v-14.9c0-2.65,0.42-2.79,4.24-2.79
				V7.36H65.54v0.95c3.18-0.07,3.43,0.64,3.43,3.04v13.98c0,2.7-0.58,3.02-3.19,3.03c0.04,0,0.07,0,0.12,0v0.95h-0.35l0,0h17.08
				L85.35,24H84.3z"/>
			<path class="st0" d="M51.13,1.31V0.04H40.96v1.27c2.54,0,3.44,0.38,3.44,1.41c0,0.38-0.14,0.99-0.71,2.31l-8.14,19.45
				l-6.36-13.09l3.06-6.12c1.74-3.53,2.21-3.91,5.46-3.95V0.04H15.63v1.27c3.11-0.05,3.53,0.14,5.32,3.95l4.33,9.13l-4.94,10.22
				l-8.2-17.36c-0.66-1.36-1.55-3.48-1.55-4.38c0-1.18,0.66-1.46,3.06-1.55V0.04H-0.01v1.27c3.58,0,4.29,0.38,5.93,3.95l11.49,24.81
				h2.92l6.21-12.99l6.17,12.99h3.02l9.93-23.73C47.69,1.5,48.49,1.36,51.13,1.31z M25.7,4.23c-0.52-1.08-0.71-1.65-0.71-2.12
				c0-0.61,0.42-0.8,2.07-0.8h1.74c1.55,0,2.02,0.23,2.02,0.85c0,0.33-0.14,0.85-0.52,1.6l-2.4,4.99L25.7,4.23z"/>
			<path class="st0" d="M65.78,28.37c-2.11-0.02-2.48-0.47-3.49-3.17L55.41,6.8h-3.96l0.28,0.88L45.35,25.2
				c-0.99,2.75-1.45,3.14-3.81,3.18v0.95h8.62v-0.95c-2.82,0.11-3.53-0.35-3.53-1.38c0-0.35,0.11-0.81,0.36-1.48l1.73-4.7h8.09
				l1.7,4.38c0.35,0.92,0.49,1.52,0.49,1.87c0,1.02-0.78,1.31-3.57,1.31v0.95h10.13v-0.95C65.63,28.37,65.7,28.37,65.78,28.37z
				 M49.37,19.05l3.36-8.93l3.39,8.93H49.37z"/>
			<path class="st0" d="M227.41,8.32c3.07-0.03,3.49,0.39,3.49,3.04V24L215.16,7.36h-6.39v0.95c1.34,0.11,2.12,0.39,2.97,1.13v15.89
				c0,2.3-0.42,3.11-2.97,3.04v0.95h8.44v-0.95c-3.18,0.18-3.53-0.7-3.53-3.46V11.35l17.27,18.19h1.91V11.42
				c0-2.68,0.74-3.11,3.11-3.11V7.36h-8.55v0.96H227.41z"/>
			<path class="st0" d="M123.63,27.74h-3.92c-1.8,0-2.08-0.35-2.08-2.54v-6.43h5.47c1.94,0,2.4,0.32,2.65,2.83h0.95v-7.1h-0.95
				c-0.21,2.44-0.6,2.68-2.65,2.68h-5.47V8.95h6.21c2.26,0,2.83,0.07,3.53,2.96l0.18,0.74h0.95l-0.32-5.3h-18.04V8.3
				c2.4,0,3.57,0.07,3.57,2.4v15.22c0,1.98-0.71,2.44-3.57,2.44v0.95h19.14l0.53-5.54h-0.95C127.9,27.24,127.2,27.74,123.63,27.74z"
				/>
			<path class="st0" d="M284,27.74h-3.92c-1.8,0-2.08-0.35-2.08-2.54v-6.43h5.47c1.94,0,2.4,0.32,2.65,2.82h0.95v-7.1h-0.95
				c-0.21,2.44-0.6,2.69-2.65,2.69H278V8.95h6.21c2.26,0,2.82,0.07,3.53,2.96l0.18,0.74h0.95l-0.32-5.3h-16.49h-1.55h-7.03V8.3
				c2.26,0,3.18,0.35,3.18,1.52c0,0.53-0.18,1.2-0.81,2.72l-5.19,12.5l-5.33-13.1c-0.39-0.95-0.57-1.66-0.57-2.12
				c0-0.74,0.49-1.48,3.39-1.52V7.36h-10.57l0,0h-9.85v0.95c2.44-0.03,2.9,0.74,2.9,2.65v14.37c0,2.01-0.11,3.11-2.9,3.04v0.95h9.85
				v-0.95c-2.54,0.07-3.04-0.64-3.04-3.28V11.35c0-2.46,0.66-3.01,2.91-3.03c2.09,0.02,2.5,0.35,3.46,2.72l7.59,18.86h2.15
				l7.31-17.55c1.07-2.57,1.56-3.86,3.73-4c1.59,0.08,2.38,0.47,2.38,2.38v15.22c0,1.98-0.71,2.44-3.56,2.44v0.95h19.14l0.53-5.54
				h-0.95C288.27,27.24,287.56,27.74,284,27.74z"/>
			<path class="st0" d="M383.09,7.36v0.95c1.59,0,2.26,0.32,2.26,1.1c0,0.49-0.35,1.2-1.16,2.51l-4.03,6.39l-4.62-6.6
				c-0.92-1.31-1.2-1.91-1.2-2.37c0-0.64,0.56-1.02,2.47-1.02V7.36h-10.63v0.23l-0.09-0.83h-0.95c-0.21,0.53-0.49,0.6-2.29,0.6
				h-14.94c-0.92,0-1.41-0.04-1.73-0.11s-0.42-0.25-0.57-0.49h-0.95l-0.63,6.07h1.02c0.53-3.67,1.24-3.88,3.32-3.88h5.05v16.63
				c0,2.33-0.56,2.79-4.1,2.79v0.95h12.11v-0.95c-3.71,0-4.09-0.39-4.09-2.79V8.95h5.05c2.12,0,2.82,0.21,3.32,3.88h1.02l-0.47-4.51
				c2.12,0.11,2.59,0.35,4.34,2.86l6.64,9.53v4.48c0,2.93-0.71,3.18-3.39,3.18v0.95h10.66v-0.95c-2.93,0-3.35-0.46-3.35-3.07v-4.91
				l4.77-7.7c2.26-3.64,2.9-4.1,5.47-4.38V7.36H383.09z"/>
			<path class="st0" d="M332.33,8.32c2.44-0.03,2.9,0.74,2.9,2.65v14.37c0,2.01-0.11,3.11-2.9,3.04v0.95h9.85v-0.95
				c-2.54,0.07-3.04-0.64-3.04-3.28V11.35c0-2.51,0.67-3.04,3.04-3.04V7.36h-9.85V8.32z"/>
			<path class="st0" d="M209.97,0.04h-11.4v1.27c3.81,0,4.52,0.38,4.52,4.05v12.57c0,6.97-4.9,9.23-10.12,9.23
				c-5.88,0-10.07-2.87-10.07-9.13V5.36c0-3.3,0.66-4.05,4.14-4.05V0.04h-13.37v1.27c3.25,0,4,0.71,4,3.58v13.23
				c0,7.67,4.8,11.96,13.75,11.96c8.57,0,14.27-4.24,14.27-11.63V5.36c0-3.3,0.71-4.05,4.28-4.05L209.97,0.04L209.97,0.04z"/>
			<path class="st0" d="M150.61,8.32c3.07-0.03,3.49,0.39,3.49,3.04V24L138.36,7.36h-6.39v0.95c1.34,0.11,2.12,0.39,2.97,1.13v15.89
				c0,2.3-0.42,3.11-2.97,3.04v0.95h8.44v-0.95c-3.18,0.18-3.53-0.71-3.53-3.46V11.35l17.27,18.19h1.9V11.42
				c0-2.68,0.74-3.11,3.11-3.11V7.36h-8.54v0.96H150.61z"/>
			<path class="st0" d="M318.78,10.82c0-1.55,1.2-2.89,3.46-2.89c2.51,0,4.7,1.69,5.76,4.48h1.06l-0.78-5.47h-0.88
				c-0.28,0.32-0.53,0.42-0.99,0.42c-0.6,0-1.17-0.14-1.87-0.28c-0.71-0.14-1.55-0.28-2.72-0.28c-3.78,0-6.46,2.12-6.46,5.16
				c0,6.14,11.12,8.09,11.12,13.03c0,2.12-1.8,3.64-4.38,3.64c-3.04,0-5.23-1.84-6.11-5.09h-1.06l0.59,4.12
				c-1.55-0.78-3.11-2-4.9-3.8l-2.29-2.3c-0.57-0.56-2.09-2.05-2.65-2.44c2.96-1.24,4.45-3.14,4.45-5.76c0-3.21-2.44-6.32-9.57-6.32
				c-0.7,0-2.44,0-4.31,0.07c-2.44,0.11-4.24,0.25-5.05,0.25v0.95c2.9,0,3.28,0.57,3.28,2.86v14.16c0,2.33-0.32,3.14-3.28,3.04v0.95
				h10.81v-0.95c-3.21,0.11-3.6-0.46-3.6-3.5v-4.66c0.92,0.1,2.12,0.07,3.14,0c1.48,1.09,2.01,1.59,3.81,3.39l1.87,1.87
				c3.18,3.18,4.91,4.41,11.86,4.24v-0.2c0.76,0.18,1.76,0.38,3.25,0.38c4.52,0,7.59-2.47,7.59-6.11
				C329.94,16.97,318.78,15.55,318.78,10.82z M299.53,19.33c-0.21,0-0.88-0.07-1.13-0.11V8.17c0.32-0.07,1.17-0.14,1.69-0.14
				c3.85,0,5.76,2.12,5.76,5.69C305.85,17.32,304.23,19.12,299.53,19.33z"/>
		</g>
	</g>
</g>
</svg>
